<svg width="96" height="96" xmlns="http://www.w3.org/2000/svg"><g fill="none" fill-rule="evenodd"><circle fill="#FFF" cx="48" cy="48" r="48"/><path d="M48.349 68.6c8.265 0 15.376-4.598 18.588-11.207a7.331 7.331 0 0 0 .456-1.782c-.068-3.56-2.119-5.34-2.935-5.909l-.332-.169c-.022 8.123-7.09 14.725-15.777 14.725h-.044c-8.687 0-15.755-6.602-15.778-14.725l-.331.17c-.817.567-2.868 2.347-2.936 5.908.052.436.174 1.058.457 1.782 3.21 6.61 10.322 11.207 18.588 11.207h.044M48.515 33.379L67.56 46.933c.06-.936-.082-4.885-5.739-9.96l-11.245-9.256c-.261-.198-1.016-.695-2.036-.717h-.078c-1.02.022-1.775.519-2.036.717L35.18 36.973c-5.657 5.075-5.799 9.024-5.739 9.96L48.485 33.38h.03" fill="#7D69EE"/></g></svg>